# xmcd
#
# Track frame offsets:
# 150
# 7725
# 22050
# 35712
# 45600
# 53787
# 79062
# 86562
# 96150
# 105837
# 119175
#
# Disc length: 1677 seconds
#
# Revision: 0
# Processed by: cddbd v1.5.1PL0 Copyright (c) Steve Scherf et al.
# Submitted via: Axialis_AX_CDPlayer 2.6
#
DISCID=83068b0b
DTITLE=Athena and The River City Boys - Athena and The River City Boys
DYEAR=1900
DGENRE=
TTITLE0=Set Me Free
TTITLE1=Hey Good Lookin'
TTITLE2=Don't Worry
TTITLE3=Steel Guitar Rag
TTITLE4=Nashville Bound
TTITLE5=Ode to Billie Joe
TTITLE6=That'll Be The Day
TTITLE7=My Old Friend The Blues
TTITLE8=Foggy Mountain Breakdown
TTITLE9=Your Cheatin' Heart
TTITLE10=If I Lose
EXTD=
EXTT0=
EXTT1=
EXTT2=
EXTT3=
EXTT4=
EXTT5=
EXTT6=
EXTT7=
EXTT8=
EXTT9=
EXTT10=
PLAYORDER=
